<svg version="1.1" id="Layer_1" xmlns="http://www.w3.org/2000/svg" xmlns:xlink="http://www.w3.org/1999/xlink" x="0px" y="0px"
	 width="100%" viewBox="0 0 1024 1024" enable-background="new 0 0 1024 1024" xml:space="preserve">
<path fill="#000000" opacity="1.000000" stroke="none" 
	d="
M600.254211,385.000000 
	C600.246948,398.998932 600.335815,412.498932 600.190186,425.996368 
	C600.121277,432.387329 601.639771,438.188599 604.465576,443.930969 
	C606.482666,448.029846 605.352722,452.826263 605.137512,457.256500 
	C604.897522,462.195282 606.299927,464.562622 611.523926,463.708832 
	C612.491516,463.550690 613.521118,463.697815 614.514343,463.788483 
	C615.791443,463.905090 616.817505,464.463928 616.793091,465.908417 
	C616.768677,467.353638 615.658752,467.872101 614.438660,468.007416 
	C613.118835,468.153839 611.779602,468.166016 610.448792,468.165985 
	C546.287659,468.164886 482.126526,468.156921 417.965393,468.142059 
	C416.801636,468.141785 415.626770,468.132233 414.477081,467.977814 
	C413.164978,467.801605 412.336456,466.994476 412.440186,465.607056 
	C412.527039,464.445648 413.371277,463.926208 414.463501,463.782593 
	C414.793427,463.739227 415.127716,463.729980 415.458008,463.688812 
	C423.728699,462.659210 424.146179,462.634491 423.660126,454.289856 
	C423.238342,447.048218 425.722778,440.849731 428.726166,434.676331 
	C429.584534,432.911987 429.621979,431.154602 429.622345,429.338379 
	C429.633057,373.342712 429.631958,317.347076 429.627197,261.351410 
	C429.627045,259.524139 429.691498,257.700897 428.708160,256.010284 
	C426.371429,251.992874 428.440796,250.386414 432.214722,250.305115 
	C439.355042,250.151321 446.500977,250.260651 453.661560,249.150803 
	C447.538391,249.150803 441.406250,248.949631 435.295135,249.221100 
	C431.182037,249.403809 429.306458,247.902634 429.640228,243.797729 
	C429.925781,240.285110 428.209503,239.181549 424.860596,239.171707 
	C419.110168,239.154816 412.589722,232.985138 412.011292,227.325119 
	C411.705475,224.332779 413.941681,224.225266 415.956512,224.107788 
	C419.811188,223.883041 424.197998,224.994598 424.373230,218.623398 
	C424.431396,216.509018 427.267120,216.895828 429.048706,216.890518 
	C437.881226,216.864197 446.713928,216.894012 455.546539,216.895966 
	C503.042999,216.906433 550.539490,216.913376 598.035950,216.925613 
	C601.539246,216.926514 605.364136,216.315674 605.413513,221.782013 
	C605.430969,223.704651 607.210815,223.922836 608.774597,223.972198 
	C610.772827,224.035278 612.783875,223.946411 614.767822,224.141953 
	C617.240417,224.385681 618.580933,225.731888 617.317444,228.211777 
	C615.732971,231.321991 613.930054,234.330032 612.075134,237.290543 
	C610.570618,239.691818 607.992798,239.270126 605.716248,239.166855 
	C602.121094,239.003769 599.902832,239.992737 600.176025,244.146271 
	C600.434509,248.076553 598.252625,249.282364 594.550537,249.165756 
	C588.425842,248.972855 582.290771,249.113327 576.157349,250.076874 
	C582.737793,250.076874 589.318604,250.034286 595.898560,250.089172 
	C602.120667,250.141083 602.342773,250.602554 600.696350,256.566132 
	C600.177429,258.445526 600.260071,260.522217 600.259155,262.508698 
	C600.240784,303.172455 600.250244,343.836243 600.254211,385.000000 
M484.105682,428.490295 
	C483.537048,436.341797 484.189148,443.959534 488.463776,450.911957 
	C504.536621,450.911957 520.677002,450.915833 536.817322,450.905548 
	C538.313416,450.904602 540.008545,451.029846 540.763306,449.393494 
	C542.823792,444.926300 545.629822,440.889679 545.597595,435.477661 
	C545.429321,407.173981 545.547546,378.868408 545.634460,350.563690 
	C545.646240,346.745850 545.118469,343.315704 541.974365,340.684814 
	C539.874268,338.927429 539.231873,336.814331 541.698669,334.839142 
	C543.642822,333.282471 543.290955,331.466400 542.886780,329.429413 
	C540.439636,317.096436 529.077942,307.533783 516.221619,307.065887 
	C502.178467,306.554810 489.908051,314.989624 486.628418,327.576721 
	C485.932098,330.249176 485.179749,333.089325 487.926453,335.405273 
	C489.950470,337.111847 489.182953,339.107544 487.590729,340.597382 
	C484.485077,343.503326 484.090118,347.080292 484.103455,351.068115 
	C484.188629,376.542999 484.127502,402.018311 484.105682,428.490295 
M467.959625,308.617065 
	C471.486969,302.059479 476.189240,296.557068 482.236938,292.147583 
	C487.563538,288.263855 493.408142,285.569824 499.683807,283.695099 
	C501.448029,283.168060 503.445831,282.628510 503.406952,280.306976 
	C503.373138,278.287842 501.875946,277.050903 500.196716,276.163971 
	C497.156921,274.558472 490.316315,276.697632 488.226044,279.872833 
	C489.065399,281.334473 491.753876,280.249207 491.974335,282.730499 
	C490.799561,285.370697 488.453674,285.379791 486.133057,284.743073 
	C482.810516,283.831573 480.140289,282.123383 481.013306,276.984589 
	C479.609924,278.562805 479.101501,279.209137 478.517151,279.777344 
	C476.904480,281.345581 474.883972,283.059235 472.940308,281.033661 
	C470.816528,278.820404 473.919189,277.782867 474.857147,276.288971 
	C475.957458,274.536591 478.723236,273.780853 478.277649,271.154449 
	C477.980225,269.401123 477.601135,267.765167 479.491760,266.813263 
	C481.676849,265.713104 483.296021,267.080017 484.868866,268.359253 
	C486.568420,269.741516 488.034912,271.594116 490.823547,271.561066 
	C487.266632,264.518951 487.952454,262.220245 494.523041,259.090393 
	C495.875702,258.446045 496.529083,257.536713 497.149506,256.321167 
	C498.784851,253.117203 501.029358,251.748215 504.666748,254.919205 
	C504.236694,250.062683 507.395752,250.812149 509.927582,250.983643 
	C510.143829,247.038406 507.670013,247.139801 505.254456,247.133194 
	C492.257477,247.097641 479.260529,247.025360 466.263550,247.026550 
	C459.587738,247.027161 459.546051,247.123001 459.334198,254.355011 
	C450.832184,254.355011 442.253601,254.355011 433.675049,254.355011 
	C433.689301,254.808655 433.703552,255.262314 433.717804,255.715958 
	C439.688446,255.715958 445.659119,255.716003 451.629761,255.715942 
	C459.075195,255.715881 459.110718,255.745483 459.116150,263.229828 
	C459.131775,284.724701 459.119843,306.219666 459.195770,327.714294 
	C459.201996,329.474548 458.405640,331.622559 461.184845,333.591492 
	C462.237518,324.788177 463.659790,316.657288 467.959625,308.617065 
M539.680054,270.016571 
	C539.177917,270.999786 539.238708,271.718475 540.572449,271.348419 
	C542.556580,270.797882 543.985168,269.335052 545.529480,268.071655 
	C546.728821,267.090515 548.059570,266.347351 549.646301,267.046722 
	C551.417236,267.827332 551.246338,269.289764 550.907349,270.866119 
	C550.320618,273.594696 552.288391,275.125153 553.935425,276.710571 
	C555.170837,277.899750 557.742249,278.614655 556.204834,280.855286 
	C554.720398,283.018677 552.647339,281.789001 550.913818,280.684509 
	C550.244995,280.258423 549.651550,279.714233 548.900818,279.127808 
	C547.087524,283.413696 543.768066,284.900879 539.715515,285.018188 
	C538.340027,285.058014 537.035645,284.367188 536.635132,282.906586 
	C536.152588,281.146942 537.601318,280.695709 538.815491,280.125549 
	C539.470459,279.817993 540.619995,280.113068 540.538269,278.372955 
	C537.717651,277.431641 534.818298,276.115845 531.779053,275.546539 
	C528.666992,274.963531 526.101501,276.452332 525.329041,279.674194 
	C524.560181,282.881226 527.249329,283.430817 529.474243,284.177551 
	C530.736145,284.600983 531.990479,285.048370 533.240845,285.505035 
	C552.653015,292.595428 563.981018,306.357758 567.278137,326.749512 
	C567.630615,328.929779 567.666504,331.220490 569.117188,333.302521 
	C570.373474,332.280670 570.030273,331.253632 570.030151,330.307739 
	C570.027527,307.332336 570.101501,284.356506 569.961487,261.381958 
	C569.935364,257.100159 571.275208,255.402405 575.718140,255.614670 
	C582.236938,255.926117 588.781616,255.694885 595.315308,255.694885 
	C588.409851,254.506592 581.514221,254.459351 574.619751,254.529022 
	C571.718323,254.558334 568.755188,255.311081 569.433594,250.441406 
	C569.824280,247.636551 567.350769,247.053604 564.980530,247.052368 
	C551.327881,247.045227 537.675110,247.016281 524.022583,247.050583 
	C522.232300,247.055069 520.169006,246.984055 520.104675,250.123428 
	C522.750305,250.345978 524.012634,253.815903 526.288574,253.835983 
	C533.473633,253.899414 535.366699,260.696808 540.010254,263.905579 
	C541.577698,264.988739 540.996704,267.617828 539.680054,270.016571 
M581.641052,259.936401 
	C578.543274,260.350708 574.345398,258.386414 574.379517,264.496277 
	C574.517456,289.145203 574.355652,313.795624 574.355164,338.445496 
	C574.354492,367.596191 574.481873,396.747253 574.346130,425.897156 
	C574.327698,429.866547 575.502441,431.340485 579.416199,431.051178 
	C582.564392,430.818451 585.742920,431.016846 588.907593,430.982910 
	C595.721130,430.909790 595.743469,430.898987 595.745117,423.994659 
	C595.756897,373.687592 595.754578,323.380524 595.766968,273.073456 
	C595.770203,259.878540 595.786682,259.878540 581.641052,259.936401 
M433.853180,266.225006 
	C434.117004,284.033173 433.750031,301.846344 433.662201,319.648712 
	C433.517639,348.948456 433.858185,378.241058 433.874420,407.536743 
	C433.877930,413.859375 433.644897,420.185120 433.381439,426.503632 
	C433.249084,429.678223 434.481323,431.117279 437.722076,431.018280 
	C441.549225,430.901306 445.399353,430.770844 449.209229,431.054138 
	C453.709320,431.388763 454.868683,429.434753 454.824707,425.194122 
	C454.648438,408.207092 454.785919,391.216888 454.784576,374.227875 
	C454.781677,338.251190 454.652740,302.273773 454.878113,266.298584 
	C454.910553,261.124420 453.011902,259.418304 448.337250,259.511871 
	C445.351929,259.571655 442.345673,259.707428 439.381470,259.442932 
	C434.798737,259.034027 432.675598,260.611267 433.853180,266.225006 
M460.892792,340.079620 
	C461.716278,337.763641 463.697693,338.779358 465.163910,338.747406 
	C470.657166,338.627716 476.154572,338.699463 481.650421,338.699463 
	C476.385559,336.830719 471.048157,337.663391 465.753387,337.598145 
	C459.796326,337.524689 459.189758,338.221649 459.186493,344.108765 
	C459.171539,371.105835 459.194550,398.102966 459.151764,425.099976 
	C459.143829,430.098114 459.170258,435.077087 459.746155,440.056091 
	C460.094360,443.066315 461.499847,445.493164 464.394775,445.715881 
	C469.749908,446.127899 475.159393,445.833740 481.184143,445.833740 
	C479.516479,442.111572 479.777100,439.104553 479.775726,436.122711 
	C479.762939,408.458923 479.756012,380.795135 479.750580,353.131348 
	C479.748962,344.949097 479.635437,344.941772 471.304352,345.253082 
	C468.362762,345.362976 467.044861,346.362671 467.113098,349.380371 
	C467.218567,354.043732 467.110779,358.711700 467.109314,363.377716 
	C467.101898,387.041840 467.084167,410.705963 467.108551,434.370056 
	C467.113464,439.143585 469.453400,441.142273 472.941315,439.459106 
	C475.532135,438.208832 474.698364,435.713348 474.702271,433.685608 
	C474.755157,406.188599 474.721832,378.691437 474.771942,351.194427 
	C474.774933,349.553070 473.947540,346.924988 476.686279,346.864929 
	C479.360748,346.806244 478.843323,349.447968 478.846954,351.100861 
	C478.911804,380.426453 479.283264,409.754333 478.388428,439.075195 
	C478.335236,440.818329 478.176056,442.702698 476.420319,443.337616 
	C472.743408,444.667358 468.763458,444.791107 465.205444,443.375000 
	C462.020569,442.107422 462.666718,438.678345 462.665924,435.870514 
	C462.657562,406.373627 462.657104,376.876770 462.644928,347.379883 
	C462.643951,345.074585 463.034698,342.658905 460.892792,340.079620 
M558.500000,234.837845 
	C573.827637,234.829803 589.155701,234.755615 604.482605,234.856186 
	C608.789490,234.884445 610.809265,233.060532 611.010925,228.825806 
	C546.740784,228.825806 482.774445,228.825806 418.743134,228.825806 
	C419.138458,234.450073 422.515442,234.878113 426.547791,234.873001 
	C470.198486,234.817596 513.849243,234.841202 558.500000,234.837845 
M554.896912,360.908020 
	C554.894226,374.731476 554.894470,388.554962 554.888000,402.378418 
	C554.882751,413.524994 555.029236,424.675232 554.771851,435.816101 
	C554.683228,439.653076 556.630249,439.816315 559.400940,439.678741 
	C562.921143,439.503967 562.625122,436.940796 562.598694,434.614685 
	C562.462524,422.632629 562.218384,410.651489 562.140137,398.669189 
	C562.035706,382.681458 561.918457,366.691467 562.093689,350.705597 
	C562.144653,346.061493 560.146545,345.055298 556.051025,345.255035 
	C552.345154,345.435760 549.239380,345.122986 549.269287,350.546143 
	C549.443298,382.122467 549.354492,413.700226 549.354492,445.434753 
	C553.580383,446.328827 557.904785,445.937836 562.206421,445.857544 
	C567.897766,445.751343 569.611328,444.193268 569.700500,438.435181 
	C569.888794,426.282806 569.906616,414.127319 569.931030,401.972961 
	C569.969849,382.653778 569.970459,363.334473 569.950134,344.015259 
	C569.947388,341.419037 570.512085,337.986542 566.736450,337.787842 
	C560.042786,337.435547 553.317200,337.689026 546.604919,337.689026 
	C546.611023,338.174438 546.617188,338.659882 546.623291,339.145294 
	C553.782898,339.145294 560.942505,339.145294 569.116821,339.145294 
	C566.106262,342.629944 566.334412,345.772278 566.394470,348.910797 
	C566.958923,378.374512 567.276245,407.838501 566.562622,437.305511 
	C566.424316,443.011871 565.230591,444.168549 558.835022,444.159576 
	C551.319641,444.149048 550.691772,443.660309 550.690613,437.507141 
	C550.685181,409.027466 550.697144,380.547760 550.704163,352.068085 
	C550.704407,351.068878 550.694458,350.068756 550.732300,349.070679 
	C550.786987,347.630646 551.147827,346.251617 552.927307,346.399353 
	C554.393738,346.521118 554.571350,347.824921 554.603149,349.048676 
	C554.698364,352.705994 554.792664,356.363281 554.896912,360.908020 
M510.184326,224.162613 
	C540.155396,224.853806 570.117981,225.035141 600.047546,223.235931 
	C595.675110,220.292618 431.502686,220.811066 427.646912,224.293701 
	C455.627014,225.244415 482.445526,223.537811 510.184326,224.162613 
M507.169739,268.513947 
	C505.865784,266.766449 504.561829,265.018951 503.257874,263.271484 
	C504.348572,268.459991 504.348572,268.459991 502.504517,271.852783 
	C511.341797,280.942627 510.402466,284.785553 498.327576,288.941193 
	C498.012756,289.049561 497.696167,289.153046 497.383148,289.266449 
	C483.010101,294.473022 473.206329,304.316345 468.236816,318.715118 
	C466.677002,323.234711 465.357788,328.062561 467.465302,333.353668 
	C472.109039,306.288269 486.449982,287.416016 514.719055,287.696777 
	C542.523376,287.972900 557.580200,306.204529 561.824341,333.604828 
	C564.021484,331.684052 563.150330,329.929321 563.037537,328.416321 
	C561.596985,309.094330 548.493530,294.361664 527.444153,288.226715 
	C524.630493,287.406677 521.332153,287.114655 520.764221,283.255310 
	C520.201843,279.433594 521.666992,276.403351 524.574341,274.027130 
	C525.717163,273.093079 527.000916,272.331421 528.609558,271.223175 
	C524.458618,270.013397 526.292725,266.630615 525.782715,263.925842 
	C523.080505,268.218628 520.382874,272.157745 520.119873,277.237305 
	C519.935425,280.800842 517.253967,283.677429 514.295654,283.630402 
	C511.308380,283.582977 508.999023,280.553833 508.519135,277.054596 
	C508.158936,274.428253 507.818542,271.799133 507.169739,268.513947 
M455.191101,447.427124 
	C447.061188,444.989380 438.768005,446.643616 430.550568,446.522339 
	C428.686584,446.494812 428.517792,448.317932 428.347382,449.889404 
	C426.873474,463.481995 427.088837,463.733704 440.828491,463.677185 
	C456.211853,463.613953 456.211853,463.613922 455.191101,447.427124 
M590.451172,446.265350 
	C589.290466,446.268158 588.129700,446.272430 586.968994,446.273560 
	C573.823364,446.286530 573.951599,446.287598 573.827515,459.493774 
	C573.795105,462.941833 575.050842,463.806213 578.150452,463.711212 
	C582.954346,463.564026 587.766541,463.693115 592.575195,463.693237 
	C600.753113,463.693481 600.797668,463.689209 600.727112,455.606476 
	C600.636414,445.219238 601.949280,446.399963 590.451172,446.265350 
M534.951843,301.395569 
	C547.435120,308.318726 553.326172,319.580536 555.132751,333.530487 
	C558.898071,324.409210 550.955933,308.286652 539.118225,300.035736 
	C522.081360,288.160980 505.158508,288.762207 489.222748,300.602386 
	C478.173859,308.811615 470.356140,327.231323 474.056580,333.355530 
	C476.247589,332.294434 475.321716,330.162537 475.631683,328.544739 
	C477.546173,318.552704 481.550171,309.599731 490.290863,303.959717 
	C504.268158,294.940765 519.057312,293.358734 534.951843,301.395569 
M523.500000,239.246124 
	C516.508972,239.247162 509.517914,239.251221 502.526855,239.248383 
	C495.535828,239.245544 488.538818,239.052673 481.555542,239.281815 
	C474.886414,239.500626 468.049286,238.258514 460.843170,240.321152 
	C462.822113,243.395950 464.996735,242.739120 466.829285,242.744904 
	C480.977570,242.789520 495.126495,242.799072 509.274292,242.696106 
	C512.130798,242.675308 514.573303,242.849426 515.281799,246.753220 
	C515.768799,242.692581 518.308838,242.764221 520.944458,242.772018 
	C534.426941,242.811890 547.910034,242.843262 561.391907,242.745392 
	C563.378906,242.730972 565.755737,243.605362 567.490845,241.195740 
	C567.116638,240.690231 566.780457,239.786942 566.376587,239.755600 
	C552.431030,238.672791 538.458984,239.521606 523.500000,239.246124 
M511.010468,300.673279 
	C491.959137,303.649170 476.209900,320.256805 480.853638,333.883789 
	C484.399750,314.433533 495.191528,302.640228 514.427917,302.562469 
	C533.957764,302.483490 544.319153,314.987885 548.617737,333.419983 
	C550.330139,330.060333 549.926514,327.098816 548.813782,324.115021 
	C542.716431,307.765289 531.226440,300.418823 511.010468,300.673279 
M563.745300,456.295715 
	C530.162292,456.295715 496.579285,456.295715 462.996277,456.295715 
	C463.003418,457.004944 463.010559,457.714203 463.017731,458.423431 
	C497.493103,459.170074 531.955994,458.064911 566.425110,457.891998 
	C566.430786,457.459595 566.436401,457.027191 566.442078,456.594788 
	C565.800842,456.498688 565.159668,456.402588 563.745300,456.295715 
M476.509125,461.500061 
	C472.057678,461.723297 467.606201,461.946564 463.154755,462.169800 
	C463.161011,462.369873 463.167236,462.569946 463.173492,462.770020 
	C497.355682,462.770020 531.537842,462.770020 565.720032,462.770020 
	C560.587646,462.071747 555.449585,462.129517 550.313171,462.061890 
	C526.005371,461.742035 501.689392,462.566925 476.509125,461.500061 
M559.802246,452.618073 
	C562.242676,452.363556 564.931946,453.530304 568.141296,450.818115 
	C560.069824,450.818115 553.103027,450.818115 546.136169,450.818115 
	C550.213562,453.648590 554.730591,451.514618 559.802246,452.618073 
M511.463470,257.404724 
	C510.765259,260.829651 512.526917,263.253052 514.404419,265.697205 
	C517.922852,263.715942 517.638977,260.160614 519.142700,257.304474 
	C516.877991,257.277466 516.160156,255.344803 514.861633,254.241623 
	C513.812073,255.229858 512.860107,256.126221 511.463470,257.404724 
M597.298035,440.626343 
	C589.924072,439.790466 582.549988,438.889465 575.165466,440.860077 
	C582.500549,442.010315 589.846924,442.405273 597.298035,440.626343 
M446.367615,441.953735 
	C452.737305,441.747192 452.737305,441.747192 455.372772,439.626160 
	C447.257233,440.634949 439.768616,438.677917 432.408752,440.974426 
	C436.670776,442.470764 441.078674,441.713470 446.367615,441.953735 
M589.235291,245.072006 
	C590.977356,244.969040 592.719421,244.866058 594.461487,244.763092 
	C594.406860,244.609909 594.352234,244.456711 594.297607,244.303528 
	C587.889038,244.303528 581.480408,244.303528 575.071838,244.303528 
	C579.489502,246.231934 583.941040,244.619080 589.235291,245.072006 
M475.383118,451.084167 
	C477.774048,450.951294 480.263153,451.362213 482.457825,450.059662 
	C476.730408,451.031769 470.948883,449.711670 465.245453,451.084381 
	C468.313049,451.084381 471.380676,451.084381 475.383118,451.084167 
M578.921753,239.351776 
	C577.457153,239.351776 575.992493,239.351776 574.527893,239.351776 
	C574.532104,239.503998 574.536316,239.656219 574.540466,239.808441 
	C580.904602,239.808441 587.268738,239.808441 593.632812,239.808441 
	C593.632629,239.657318 593.632446,239.506180 593.632202,239.355057 
	C589.023804,239.355057 584.415405,239.355057 578.921753,239.351776 
M444.540070,239.291290 
	C441.618988,239.291290 438.697906,239.291290 435.776825,239.291290 
	C435.792053,239.441269 435.807312,239.591232 435.822540,239.741211 
	C442.040375,239.741211 448.258209,239.741211 454.476074,239.741211 
	C454.471069,239.591019 454.466095,239.440811 454.461090,239.290619 
	C451.471680,239.290619 448.482239,239.290619 444.540070,239.291290 
M439.217346,244.003830 
	C438.234711,244.211853 437.059357,243.577499 436.220123,244.602386 
	C442.327087,244.602386 448.364807,244.602386 454.402527,244.602386 
	C454.394714,244.403610 454.386871,244.204849 454.379059,244.006073 
	C449.599396,244.006073 444.819763,244.006073 439.217346,244.003830 
z"/>
<path fill="#000000" opacity="1.000000" stroke="none" 
	d="
M824.208862,591.000000 
	C824.520508,603.139282 823.286316,614.828247 825.224731,626.413574 
	C826.407898,633.484863 828.621460,635.640198 835.764587,637.040161 
	C836.255127,637.136292 836.744019,637.241699 837.235779,637.330933 
	C839.119934,637.672852 841.100769,638.135498 840.769653,640.603088 
	C840.450317,642.982971 838.367065,643.081482 836.500671,643.087524 
	C823.503052,643.129761 810.505310,643.142761 797.507568,643.155518 
	C795.175049,643.157837 792.841125,643.156738 790.510376,643.080322 
	C788.714294,643.021423 787.109741,642.491943 787.043030,640.329224 
	C786.984924,638.441956 788.348083,637.751282 789.966919,637.559814 
	C800.364502,636.329651 801.352966,630.764465 801.498352,622.397522 
	C801.958740,595.911377 801.779419,569.411377 801.592712,542.918457 
	C801.541016,535.584229 798.542053,529.972351 790.260071,528.899841 
	C788.662964,528.692993 787.445984,527.770874 787.723206,525.834167 
	C787.964355,524.149170 789.201355,523.704773 790.628418,523.726685 
	C812.761841,524.065674 834.950500,522.180237 857.014709,524.893738 
	C863.634888,525.707886 869.926331,528.310730 875.266052,532.547241 
	C893.005371,546.621582 889.396790,571.842407 868.277588,581.959839 
	C865.774414,583.159058 862.804016,583.510925 860.514893,586.180725 
	C863.445862,590.876343 866.329529,595.696594 869.409729,600.387756 
	C875.260742,609.298828 881.109009,618.215881 887.180786,626.976379 
	C891.370300,633.021179 896.722656,637.641663 904.344727,638.916565 
	C905.611084,639.128479 907.014465,639.449341 907.406860,641.153015 
	C907.038940,643.448669 904.977600,643.627136 903.315002,644.101807 
	C889.068237,648.168396 873.469116,643.102783 864.357117,631.382812 
	C856.864380,621.745483 851.307312,610.883850 845.098267,600.438354 
	C841.943054,595.130432 839.135071,589.572815 832.826355,587.161072 
	C830.992371,586.459961 830.524475,584.831360 830.962830,583.018372 
	C831.403931,581.194275 832.943970,580.952942 834.486450,580.875305 
	C836.316467,580.783203 838.151672,580.792908 839.981873,580.702698 
	C853.402283,580.040771 861.528503,571.783142 861.953308,558.394104 
	C862.418213,543.741272 856.816040,535.255615 844.302185,531.927856 
	C839.087830,530.541260 833.720093,530.968811 828.395935,531.088928 
	C826.439880,531.133057 825.273621,532.111938 825.042053,534.069153 
	C824.768738,536.378601 824.360413,538.693909 824.347290,541.008606 
	C824.253479,557.505432 824.245544,574.002808 824.208862,591.000000 
z"/>
<path fill="#000000" opacity="1.000000" stroke="none" 
	d="
M415.806152,573.224854 
	C423.633301,531.536316 465.137146,516.143921 497.425171,522.065002 
	C518.738403,525.973450 535.455383,536.142700 544.797485,556.213074 
	C559.711121,588.253052 546.337585,625.419861 510.609375,640.096802 
	C483.447601,651.254700 449.699921,644.858948 430.999756,624.864502 
	C418.447876,611.443848 413.447693,595.397644 415.502380,577.143127 
	C415.632538,575.986511 415.661255,574.818542 415.806152,573.224854 
M498.865875,532.585327 
	C477.748535,523.007446 452.342834,530.094116 443.880585,555.687500 
	C442.355042,560.301392 441.214478,564.968384 440.712738,569.768738 
	C438.998505,586.169739 440.297302,602.156616 448.982758,616.640198 
	C458.052216,631.764099 471.822174,639.005249 489.290497,637.287598 
	C506.857117,635.560364 517.382568,624.620300 522.357300,608.178833 
	C527.158691,592.310303 527.246460,576.357544 521.900574,560.555115 
	C517.863037,548.619995 510.867981,538.996643 498.865875,532.585327 
z"/>
<path fill="#000000" opacity="1.000000" stroke="none" 
	d="
M363.759827,529.076538 
	C386.989716,542.096924 396.940643,561.984192 395.232544,587.778137 
	C393.726135,610.526306 381.611450,626.513367 362.003235,637.240051 
	C336.214355,651.347778 300.588409,646.709351 281.116882,629.758789 
	C250.023132,602.690857 253.192337,554.614502 288.091431,532.637390 
	C312.142975,517.491272 337.667633,517.095154 363.759827,529.076538 
M315.305206,529.660278 
	C304.562134,532.559265 296.628906,538.963867 291.666779,548.907715 
	C284.794434,562.679504 284.108612,577.377563 285.733704,592.295654 
	C286.925598,603.237427 290.461853,613.414368 297.453613,622.090149 
	C307.011963,633.950684 319.800354,638.820374 334.611084,637.230469 
	C350.747925,635.498047 361.210968,626.080078 366.487610,610.789429 
	C371.626343,595.898254 372.327728,580.728149 368.278229,565.604492 
	C363.855804,549.088013 355.310089,535.698059 337.809906,530.209778 
	C330.632690,527.958862 323.403137,528.107361 315.305206,529.660278 
z"/>
<path fill="#000000" opacity="1.000000" stroke="none" 
	d="
M731.042969,532.217224 
	C717.555237,532.140625 717.366394,532.285767 717.223389,545.624695 
	C717.130554,554.284790 717.284058,562.948120 717.135620,571.606750 
	C717.069397,575.472351 718.590698,576.976379 722.473877,576.824219 
	C728.128601,576.602600 733.798096,576.769348 739.461243,576.746948 
	C746.357727,576.719666 751.887390,574.565247 754.249634,567.342957 
	C754.778809,565.725098 755.678955,564.087708 757.802917,564.661133 
	C759.810730,565.203186 760.070068,567.085266 759.866760,568.738647 
	C758.804749,577.375916 759.588013,586.043823 759.288025,594.690430 
	C759.236328,596.179565 759.392639,597.883850 757.475464,598.348816 
	C755.277893,598.881836 754.518982,597.211426 754.008484,595.594177 
	C751.997009,589.222656 747.006287,586.830505 741.025391,586.456848 
	C734.387390,586.042175 727.707886,586.305115 721.046814,586.240051 
	C718.288879,586.213074 717.160889,587.622131 717.184265,590.265503 
	C717.272522,600.257263 716.946777,610.271057 717.509583,620.235107 
	C718.053345,629.862549 722.194763,632.967163 731.889954,633.901306 
	C748.271729,635.479553 761.323914,630.244080 770.674622,616.451416 
	C771.593811,615.095642 772.573975,613.456543 774.655457,614.429138 
	C776.724487,615.395935 776.114624,617.122070 775.658203,618.752380 
	C773.909607,624.997498 771.976135,631.198914 770.481934,637.504395 
	C769.445740,641.877319 767.044678,643.263916 762.679565,643.241028 
	C736.529724,643.104187 710.378845,643.187866 684.228271,643.192871 
	C683.229553,643.193054 682.228699,643.176208 681.232605,643.110291 
	C679.738831,643.011536 678.669739,642.300110 678.466919,640.744873 
	C678.243896,639.033813 678.951416,637.555603 680.696533,637.409973 
	C693.342285,636.354980 693.695496,627.143677 693.780151,617.807312 
	C694.003540,593.181030 694.829224,568.554626 693.759827,543.927368 
	C693.343262,534.334167 691.455017,531.792236 682.274109,529.157654 
	C680.515991,528.653198 678.999939,527.953064 679.260193,525.877625 
	C679.540344,523.643799 681.450195,523.684753 683.125610,523.677795 
	C692.619568,523.638367 702.113770,523.619995 711.607849,523.611328 
	C728.097656,523.596252 744.589539,523.737549 761.075989,523.496765 
	C765.939026,523.425781 767.582458,525.145752 767.291077,529.875549 
	C766.984375,534.852417 767.270386,539.864746 767.258911,544.861511 
	C767.255371,546.396851 767.135986,547.955566 765.148376,548.284180 
	C763.499634,548.556702 762.553711,547.486328 762.144897,546.201111 
	C758.330444,534.209534 749.001038,531.823608 738.029541,532.192444 
	C735.866272,532.265198 733.698853,532.211487 731.042969,532.217224 
z"/>
<path fill="#000000" opacity="1.000000" stroke="none" 
	d="
M603.205017,560.000000 
	C603.226929,579.164001 603.217163,597.828186 603.302795,616.491882 
	C603.315674,619.304993 603.583679,622.148865 604.061340,624.921997 
	C605.574829,633.709595 607.805237,635.769409 616.666260,636.988159 
	C617.490967,637.101624 618.321045,637.190186 619.137207,637.349121 
	C620.778259,637.668640 621.957458,638.531311 621.882812,640.344421 
	C621.806030,642.207825 620.424377,642.848145 618.825195,643.019653 
	C617.503601,643.161377 616.163940,643.172119 614.832153,643.174194 
	C600.167480,643.196838 585.502747,643.210327 570.838074,643.212646 
	C569.507141,643.212830 568.170227,643.179443 566.846802,643.051636 
	C565.378662,642.909851 564.303528,642.130188 564.100159,640.606140 
	C563.862122,638.822693 564.860168,637.466003 566.502563,637.387024 
	C579.244629,636.774292 580.083496,627.479492 580.212219,618.187378 
	C580.532776,595.045349 580.537659,571.898315 580.546875,548.753296 
	C580.548096,545.615967 580.010132,542.447937 579.434814,539.347412 
	C578.340332,533.448547 574.935059,529.855530 568.733398,529.264709 
	C566.565735,529.058289 563.914673,528.895386 564.287659,525.851501 
	C564.624878,523.099915 567.252197,523.665894 569.150269,523.664673 
	C588.814087,523.651917 608.491699,523.258545 628.136719,523.878967 
	C640.201538,524.259949 651.732056,527.887329 659.779907,537.608459 
	C672.895020,553.450378 667.692261,576.697327 649.246277,585.983337 
	C641.560547,589.852417 633.347046,591.918640 624.618591,591.249634 
	C622.591980,591.094299 620.337402,591.078552 620.019409,588.443054 
	C619.673340,585.574036 621.762268,585.020935 624.079468,584.489075 
	C633.462158,582.335449 640.286255,576.978394 642.110229,567.277405 
	C644.088928,556.753540 644.221313,546.275818 635.556274,537.930542 
	C629.868591,532.452698 622.873352,531.012085 615.314636,531.052368 
	C601.656799,531.125061 603.316528,529.752502 603.210083,543.002014 
	C603.165894,548.500977 603.203796,554.000671 603.205017,560.000000 
z"/>
<path fill="#000000" opacity="1.000000" stroke="none" 
	d="
M149.124207,540.112000 
	C166.504303,524.686340 186.762100,519.649536 209.121582,521.391541 
	C218.749939,522.141602 228.268158,523.588562 237.717316,525.589600 
	C239.826767,526.036255 241.086212,526.802612 241.174545,529.035278 
	C241.477203,536.684814 241.806763,544.333313 242.079788,551.983826 
	C242.144226,553.789490 241.545746,555.425842 239.554581,555.748047 
	C237.690933,556.049805 236.949783,554.571289 236.493240,553.073120 
	C230.428558,533.171936 208.342041,526.619629 189.785995,530.614441 
	C177.067383,533.352600 167.606400,540.661743 162.157196,552.357788 
	C153.482620,570.976624 153.329468,590.049255 161.230408,608.986145 
	C174.002014,639.597046 216.863602,644.722412 235.929214,616.997498 
	C236.967087,615.488342 238.059204,614.013977 239.179031,612.564331 
	C240.044220,611.444336 241.085205,610.727539 242.625931,611.328247 
	C244.125473,611.912964 244.741226,613.057678 244.355453,614.496704 
	C242.288757,622.206238 240.166245,629.901428 237.979568,637.577698 
	C237.584000,638.966370 236.232025,639.582397 234.944702,639.965759 
	C211.844147,646.844543 188.673111,648.697327 166.061752,638.646240 
	C126.738411,621.166626 118.192688,571.441162 149.124207,540.112000 
z"/>
<path fill="#000000" opacity="1.000000" stroke="none" 
	d="
M595.343628,685.642212 
	C593.308167,682.995972 595.383179,682.823669 596.792786,682.824524 
	C604.101624,682.829163 611.446472,682.586182 618.706787,683.235107 
	C623.863770,683.695984 628.241333,686.275391 629.695557,691.942566 
	C631.123657,697.507751 629.032043,701.778076 624.477051,704.826965 
	C622.157532,706.379578 622.313293,707.862244 623.707825,709.752563 
	C627.989258,715.556335 630.702209,722.717773 637.867249,725.686646 
	C637.756714,728.234802 636.085083,728.172668 634.633972,728.300049 
	C628.854309,728.807434 624.156372,726.797302 620.851196,721.987671 
	C618.310425,718.290283 615.974121,714.452759 613.519165,710.695679 
	C612.786926,709.574951 611.942749,708.287109 610.423218,708.581177 
	C608.569641,708.940002 608.567688,710.657715 608.392395,712.152832 
	C607.588745,719.009521 608.320190,721.383240 613.372009,727.004883 
	C606.658752,728.871582 600.479736,728.475891 593.709229,726.678589 
	C600.159180,723.761902 598.691833,718.398071 598.724182,713.587769 
	C598.772217,706.437622 598.696350,699.286621 598.756592,692.136719 
	C598.779175,689.466187 598.281738,687.168884 595.343628,685.642212 
M608.302612,694.521973 
	C608.312439,695.685547 608.264038,696.853149 608.344482,698.011841 
	C608.500183,700.255005 607.888245,703.091248 610.991760,703.728699 
	C614.154724,704.378357 616.886047,703.318909 618.681030,700.392212 
	C619.880737,698.436035 619.947815,696.286438 619.831299,694.121338 
	C619.575256,689.362549 616.271973,686.135376 611.838867,686.399109 
	C606.534546,686.714783 608.882935,690.908997 608.302612,694.521973 
z"/>
<path fill="#000000" opacity="1.000000" stroke="none" 
	d="
M351.661469,725.610291 
	C341.084015,718.788208 337.179596,707.455017 341.395477,696.394470 
	C345.671936,685.175110 357.391785,680.909058 367.895691,682.043884 
	C379.674591,683.316467 386.515381,689.500854 388.851471,699.665710 
	C391.080170,709.363159 387.472076,719.294922 379.133789,724.523193 
	C370.472229,729.954163 361.266022,730.144897 351.661469,725.610291 
M375.845001,719.252686 
	C381.013580,710.201904 380.588654,701.149963 375.363525,692.385742 
	C372.233704,687.136047 367.157776,685.310547 361.203308,686.314819 
	C355.593323,687.260986 352.747955,691.198486 351.330048,696.316040 
	C349.445221,703.119019 349.924835,709.784546 353.033630,716.173462 
	C357.769775,725.906616 367.622681,727.514099 375.845001,719.252686 
z"/>
<path fill="#000000" opacity="1.000000" stroke="none" 
	d="
M435.787231,707.948730 
	C436.601257,708.720093 437.195251,709.252136 438.470734,710.394470 
	C438.470734,703.056274 438.538635,696.498413 438.441284,689.943054 
	C438.394714,686.805603 434.967987,686.292786 432.402771,683.663025 
	C438.153412,682.167358 442.845734,682.653259 449.328064,683.284302 
	C440.913361,688.750183 443.634338,695.984375 443.376801,702.439941 
	C443.098175,709.424927 443.366394,716.430908 443.336334,723.427429 
	C443.329529,725.015991 443.895691,727.112427 441.846436,727.755981 
	C439.925201,728.359314 438.937744,726.516602 437.894379,725.273743 
	C430.934662,716.983093 424.016052,708.657898 417.052246,700.370667 
	C415.891235,698.989014 414.575104,697.737671 412.281464,695.320312 
	C412.103271,704.947327 411.578400,713.256897 412.487640,721.589844 
	C412.781036,724.278687 416.352020,724.012756 417.185150,726.318359 
	C413.751068,728.806946 405.851135,728.835083 401.573303,726.010010 
	C407.955231,723.584290 406.826111,718.273621 406.857697,713.398987 
	C406.892242,708.068359 406.905060,702.737000 406.861786,697.406494 
	C406.820770,692.355225 408.211548,686.703491 400.760468,684.747864 
	C406.710297,681.198975 414.233582,682.186340 417.613556,686.250122 
	C423.577301,693.420471 429.580505,700.558044 435.787231,707.948730 
z"/>
<path fill="#000000" opacity="1.000000" stroke="none" 
	d="
M674.049072,724.684814 
	C677.313782,724.187012 680.941040,724.550049 681.540649,720.639282 
	C682.231934,716.129700 682.426758,711.480347 676.066101,709.633301 
	C682.260254,706.823059 687.987366,707.910400 695.298279,708.270691 
	C690.289062,712.855774 690.756104,717.370300 691.120911,721.800293 
	C691.319885,724.216797 690.379944,725.561584 688.136780,726.249634 
	C680.047241,728.731079 671.916382,729.892334 663.608459,727.294312 
	C653.265869,724.060059 646.833984,715.500061 646.891296,704.993774 
	C646.944214,695.285706 653.614258,686.783447 663.482788,683.506836 
	C671.412903,680.873901 679.265320,681.660278 687.088257,683.719421 
	C690.827087,684.703552 691.483582,688.413940 689.272705,694.588318 
	C687.728027,695.007812 687.216309,693.762390 686.709045,692.806702 
	C683.330750,686.442017 677.541809,685.508789 671.290710,686.235413 
	C664.873291,686.981262 660.795776,690.720337 658.943359,696.998901 
	C654.863708,710.826599 660.825012,722.135559 674.049072,724.684814 
z"/>
<path fill="#000000" opacity="1.000000" stroke="none" 
	d="
M575.385742,707.695923 
	C575.191162,709.375122 575.694275,710.854675 573.835999,711.856750 
	C571.303284,709.304260 568.719910,706.326294 564.376587,707.300720 
	C563.573242,707.480957 562.421265,707.293274 561.994141,707.775208 
	C558.835327,711.339111 560.492493,715.608704 560.611938,719.595093 
	C560.691101,722.233887 562.316833,723.540283 565.193054,723.781738 
	C571.796814,724.335999 576.987305,722.349121 579.746826,715.347717 
	C583.244873,721.301697 579.894104,728.079834 574.603577,728.112976 
	C566.785461,728.161865 558.966675,728.169312 551.148743,728.113342 
	C549.436218,728.101135 547.415039,728.678955 545.977905,725.922668 
	C552.107666,723.812866 550.639648,718.579163 550.692993,713.910339 
	C550.753845,708.587830 550.738098,703.263733 550.697449,697.940796 
	C550.659058,692.914917 551.877747,687.496643 546.158264,684.537170 
	C547.871155,682.099731 549.869324,682.738525 551.582947,682.720825 
	C558.735046,682.647034 565.889343,682.648071 573.041016,682.749268 
	C575.064880,682.777893 577.852600,681.843018 578.638611,684.635742 
	C579.402405,687.349243 580.071350,690.394226 576.916931,693.692688 
	C574.807007,687.549377 570.011963,686.759827 564.870422,686.582886 
	C561.793884,686.477112 560.123962,687.664734 560.276978,690.929810 
	C560.346985,692.423462 560.120422,693.944763 560.314697,695.415710 
	C560.639587,697.876343 559.029846,701.388000 562.403320,702.402100 
	C565.676514,703.385925 569.373901,703.609985 572.076904,700.406189 
	C572.597961,699.788574 573.167358,699.124756 574.596924,699.386963 
	C576.134277,701.703308 575.060974,704.590515 575.385742,707.695923 
z"/>
<path fill="#000000" opacity="1.000000" stroke="none" 
	d="
M711.716919,700.032715 
	C711.716858,698.040222 711.584290,696.526672 711.741821,695.044006 
	C712.207886,690.657959 711.514893,686.808594 707.094971,684.720947 
	C708.258789,682.061829 710.350769,682.768555 712.008484,682.748413 
	C719.337646,682.659241 726.669434,682.659607 733.998474,682.757874 
	C736.023071,682.784973 738.839050,681.790283 739.654419,684.538757 
	C740.458984,687.250732 741.013611,690.313171 738.104431,693.577576 
	C735.690369,688.020935 731.446045,686.146851 726.044861,686.384277 
	C722.872131,686.523804 720.945435,687.653381 721.210327,691.186890 
	C721.309631,692.511902 721.059021,693.874146 721.247437,695.179077 
	C721.605774,697.660889 719.808411,701.202148 722.944641,702.360107 
	C726.346619,703.616150 730.210571,703.610535 733.043091,700.285706 
	C733.560608,699.678162 734.148315,699.000366 735.578979,699.516357 
	C736.603821,703.432007 736.648865,707.494812 735.181885,712.438965 
	C732.255127,709.023193 729.636169,706.226379 725.309204,707.207214 
	C724.506165,707.389221 723.325928,707.112366 722.903381,707.577454 
	C719.555908,711.262207 721.686096,715.745972 721.391113,719.871582 
	C721.202332,722.512390 723.092163,723.417969 725.596191,723.753662 
	C732.399536,724.665588 737.592712,722.227356 741.148193,715.969788 
	C743.984863,722.223572 740.792542,728.012573 735.154053,728.058228 
	C727.491089,728.120361 719.827087,728.105896 712.163879,728.063477 
	C710.418884,728.053772 708.468994,728.482422 706.806885,726.202759 
	C713.812439,722.868286 711.427795,716.542114 711.683960,711.020325 
	C711.845886,707.529114 711.716003,704.024475 711.716919,700.032715 
z"/>
<path fill="#000000" opacity="1.000000" stroke="none" 
	d="
M471.492310,712.304932 
	C473.903809,719.225159 478.177948,723.224426 485.349609,724.009033 
	C492.584839,724.800537 496.997620,720.663940 500.609467,714.568481 
	C503.282257,720.997009 500.953094,726.115601 495.696655,727.382446 
	C490.644592,728.600098 485.528381,729.035217 480.348907,728.326660 
	C468.479126,726.702759 460.142151,718.016357 459.738678,706.847839 
	C459.281921,694.204712 466.473389,685.307434 478.918457,682.633240 
	C484.106354,681.518494 489.132141,681.823608 494.258087,682.720093 
	C501.536224,683.992981 503.411133,687.943115 499.830353,695.272278 
	C499.285309,694.961792 498.548157,694.792908 498.256836,694.338379 
	C493.439728,686.822754 489.242493,684.760071 481.911774,686.395874 
	C475.568268,687.811462 471.175903,693.316406 470.410645,701.063110 
	C470.049591,704.717957 470.143616,708.384521 471.492310,712.304932 
z"/>
<path fill="#000000" opacity="1.000000" stroke="none" 
	d="
M298.446350,715.415405 
	C301.730835,721.249878 306.264404,724.226440 312.765961,724.253967 
	C319.187500,724.281128 322.588135,719.650818 326.346039,715.100342 
	C328.600677,722.038513 326.374359,726.149353 320.337067,727.434814 
	C314.253937,728.729980 308.203857,729.237549 302.080933,727.455688 
	C292.862762,724.772949 286.403870,717.282471 285.714661,708.183594 
	C284.846008,696.715698 289.420776,688.362305 299.014893,684.270447 
	C307.210724,680.775085 315.632324,681.365906 323.984039,683.563599 
	C327.578918,684.509460 328.196381,690.264099 325.430054,694.869995 
	C324.418732,694.938782 324.031860,694.199402 323.577423,693.489563 
	C319.527863,687.164673 314.960266,685.143311 307.641937,686.374817 
	C301.057098,687.482788 298.117920,692.186035 296.797607,697.995850 
	C295.489258,703.753113 295.565704,709.576111 298.446350,715.415405 
z"/>
<path fill="#000000" opacity="1.000000" stroke="none" 
	d="
M531.920044,727.609863 
	C525.849548,728.390198 520.172424,728.368774 514.119385,727.042419 
	C520.447571,723.107422 518.692322,717.290344 518.784363,712.053467 
	C518.880981,706.559753 518.768127,701.062683 518.802979,695.567383 
	C518.830200,691.273865 519.523926,686.769836 514.354858,683.850769 
	C520.572327,682.339844 526.512634,682.482788 532.985352,683.679565 
	C526.775940,687.967346 528.482483,694.070740 528.377075,699.662292 
	C528.279724,704.822815 528.386108,709.986938 528.353760,715.149109 
	C528.329407,719.046448 528.318787,722.870789 532.299255,725.240295 
	C533.077271,725.703430 532.937561,726.682495 531.920044,727.609863 
z"/>
<path fill="#000000" opacity="1.000000" stroke="none" 
	d="
M578.703857,343.999908 
	C578.708191,318.852325 578.704895,294.204773 578.722717,269.557220 
	C578.726990,263.601105 584.199341,260.536133 589.471313,263.495483 
	C591.898132,264.857697 591.285034,267.236053 591.288940,269.300415 
	C591.341064,296.779083 591.351257,324.257874 591.348083,351.736633 
	C591.345398,374.718842 591.343262,397.701172 591.238953,420.682983 
	C591.229187,422.835205 592.379639,425.886688 589.530396,426.876617 
	C586.576904,427.902863 583.177612,427.926025 580.212585,426.800598 
	C577.918457,425.929840 578.740417,423.330475 578.737061,421.440582 
	C578.691040,395.793762 578.704834,370.146851 578.703857,343.999908 
M586.939758,410.483917 
	C586.935364,365.025085 586.954102,319.566162 586.856750,274.107544 
	C586.852051,271.888245 588.149963,267.882812 585.059814,267.824371 
	C581.754089,267.761902 583.141663,271.761292 583.137268,273.940521 
	C583.041687,321.729889 583.059326,369.519501 583.056641,417.309052 
	C583.056580,418.308044 583.028687,419.309875 583.092529,420.305328 
	C583.176453,421.613800 583.071045,423.254272 584.895447,423.331665 
	C586.746216,423.410126 586.832886,421.793304 586.867920,420.465942 
	C586.946838,417.470673 586.922119,414.472717 586.939758,410.483917 
z"/>
<path fill="#000000" opacity="1.000000" stroke="none" 
	d="
M450.408081,291.886261 
	C450.404816,335.008331 450.404602,377.648163 450.392609,420.287964 
	C450.390808,426.664581 445.445923,429.762207 439.658691,427.072693 
	C437.490845,426.065247 437.837433,424.097168 437.829407,422.323761 
	C437.792480,414.161713 437.816254,405.999420 437.816864,397.837189 
	C437.820160,355.359833 437.818939,312.882507 437.830353,270.405151 
	C437.832214,263.519165 441.314667,261.091949 448.013947,263.071564 
	C450.440948,263.788727 450.354492,265.595642 450.363434,267.416626 
	C450.402740,275.412292 450.396820,283.408173 450.408081,291.886261 
M442.210175,394.500000 
	C442.221954,402.831299 442.207062,411.162781 442.269379,419.493683 
	C442.281036,421.051697 441.761597,423.309692 444.175232,423.413422 
	C446.899963,423.530548 446.480957,421.147400 446.586060,419.380157 
	C446.645294,418.383606 446.613190,417.381287 446.613495,416.381561 
	C446.622040,389.054932 446.673340,361.728210 446.622925,334.401703 
	C446.583893,313.254791 446.450317,292.107758 446.237762,270.962006 
	C446.222565,269.449860 447.271515,266.643860 444.335022,266.703400 
	C441.750671,266.755798 442.347290,269.300934 442.221283,271.030670 
	C442.124664,272.357178 442.181213,273.695374 442.181519,275.028351 
	C442.190643,314.518890 442.201202,354.009460 442.210175,394.500000 
z"/>
</svg>